Coordinates
version=1
nRows=13
nColumns=38
inDegrees=no

Units are S.I. units (second, meters, Newtons, ...)
If the header above contains a line with 'inDegrees', this indicates whether rotational values are in degrees (yes) or radians (no).

endheader
time	pelvis_tilt	pelvis_list	pelvis_rotation	pelvis_tx	pelvis_ty	pelvis_tz	hip_flexion_r	hip_adduction_r	hip_rotation_r	knee_angle_r	ankle_angle_r	subtalar_angle_r	mtp_angle_r	hip_flexion_l	hip_adduction_l	hip_rotation_l	knee_angle_l	ankle_angle_l	subtalar_angle_l	mtp_angle_l	lumbar_extension	lumbar_bending	lumbar_rotation	arm_flex_r	arm_add_r	arm_rot_r	elbow_flex_r	pro_sup_r	wrist_flex_r	wrist_dev_r	arm_flex_l	arm_add_l	arm_rot_l	elbow_flex_l	pro_sup_l	wrist_flex_l	wrist_dev_l
60	0.284716	1.32365	1.33611	0.667166	0.577822	0.8568	0.759281	-0.107507	-0.0232112	0.994295	-0.127656	0	0	0.67627	-0.254174	-0.257619	0.878493	-0.185782	0	0	-0.37058	0.220963	-0.0415257	0.367077	-0.455586	0.251518	0.590708	1.04655	0	0	0.153528	-0.278761	0.107645	0.841983	1.5708	0	0
60.01	0.293264	1.32699	1.32896	0.667069	0.580091	0.860112	0.742913	-0.106152	-0.0283756	0.979649	-0.12977	0	0	0.660012	-0.25293	-0.261283	0.860466	-0.191434	0	0	-0.35962	0.220829	-0.0456631	0.361962	-0.456913	0.267948	0.588996	1.04264	0	0	0.148412	-0.279732	0.109799	0.844273	1.5708	0	0
60.02	0.29954	1.33012	1.32332	0.666993	0.582427	0.863497	0.725453	-0.10464	-0.0323658	0.960518	-0.132785	0	0	0.643066	-0.251438	-0.266121	0.841098	-0.197515	0	0	-0.348787	0.220114	-0.0492199	0.356546	-0.457628	0.283033	0.58755	1.03761	0	0	0.143485	-0.280146	0.111278	0.846128	1.5708	0	0
60.03	0.306979	1.33403	1.31692	0.666899	0.584886	0.866962	0.706897	-0.103637	-0.0377993	0.941829	-0.135641	0	0	0.62476	-0.24997	-0.271417	0.821032	-0.20391	0	0	-0.338892	0.219526	-0.05281	0.350858	-0.458142	0.297946	0.586408	1.03331	0	0	0.138738	-0.280481	0.112484	0.848124	1.5708	0	0
60.04	0.316122	1.33859	1.30945	0.666772	0.587461	0.870468	0.687646	-0.103334	-0.0452108	0.924457	-0.13851	0	0	0.605448	-0.248503	-0.276715	0.800362	-0.210694	0	0	-0.329691	0.21915	-0.0567132	0.34508	-0.458947	0.313148	0.585969	1.03016	0	0	0.133947	-0.281003	0.113691	0.85052	1.5708	0	0
60.05	0.324715	1.34253	1.3025	0.66664	0.590022	0.873861	0.668559	-0.102977	-0.0522269	0.905342	-0.142091	0	0	0.58669	-0.246852	-0.281921	0.779125	-0.217767	0	0	-0.319623	0.218849	-0.0607952	0.3393	-0.459381	0.327966	0.585674	1.02613	0	0	0.129122	-0.281442	0.114872	0.852675	1.5708	0	0
60.06	0.331384	1.34567	1.29683	0.66652	0.592492	0.877119	0.650039	-0.102115	-0.0580597	0.884538	-0.145908	0	0	0.568764	-0.245014	-0.287135	0.757569	-0.225089	0	0	-0.308673	0.218215	-0.064567	0.333805	-0.459482	0.342435	0.585348	1.02149	0	0	0.124365	-0.281762	0.116134	0.854529	1.5708	0	0
60.07	0.337015	1.34885	1.29218	0.66638	0.59493	0.880292	0.631906	-0.101666	-0.0643603	0.864453	-0.149623	0	0	0.550841	-0.242733	-0.292163	0.735706	-0.232609	0	0	-0.297761	0.217225	-0.0683725	0.328508	-0.459641	0.357015	0.585407	1.01767	0	0	0.119691	-0.2822	0.117463	0.856351	1.5708	0	0
60.08	0.343024	1.3526	1.28745	0.666244	0.5974	0.883422	0.613668	-0.101794	-0.0713817	0.845277	-0.15358	0	0	0.53221	-0.240244	-0.29721	0.713471	-0.24032	0	0	-0.287517	0.21614	-0.0723332	0.32307	-0.459394	0.371113	0.585716	1.01391	0	0	0.115247	-0.28281	0.118979	0.85819	1.5708	0	0
60.09	0.350648	1.35677	1.28135	0.666111	0.599902	0.886516	0.594952	-0.101934	-0.0797056	0.827199	-0.156965	0	0	0.512992	-0.2379	-0.302213	0.690971	-0.248191	0	0	-0.277837	0.215261	-0.0763936	0.317742	-0.458963	0.384501	0.586267	1.01049	0	0	0.110966	-0.283431	0.120595	0.860099	1.5708	0	0
60.1	0.358388	1.36049	1.27495	0.665985	0.602373	0.889493	0.576189	-0.101521	-0.0878105	0.808277	-0.160497	0	0	0.494197	-0.235573	-0.307156	0.668198	-0.256168	0	0	-0.267969	0.214357	-0.080233	0.312516	-0.45852	0.397455	0.586994	1.00756	0	0	0.106616	-0.283985	0.122112	0.862151	1.5708	0	0
60.11	0.364676	1.36393	1.27005	0.665853	0.604809	0.892326	0.557887	-0.101504	-0.0948285	0.787431	-0.165632	0	0	0.475785	-0.232733	-0.311725	0.645199	-0.264249	0	0	-0.257854	0.21315	-0.084158	0.307343	-0.458101	0.410599	0.587937	1.00596	0	0	0.102276	-0.284579	0.12369	0.864286	1.5708	0	0
60.12	0.371102	1.36778	1.26536	0.665691	0.607243	0.895113	0.538986	-0.101631	-0.102205	0.766615	-0.170215	0	0	0.456971	-0.229474	-0.315873	0.621903	-0.272601	0	0	-0.248295	0.211799	-0.088338	0.302701	-0.457876	0.424149	0.589077	1.00592	0	0	0.0981359	-0.285053	0.125113	0.866297	1.5708	0	0
